<svg id="svg" version="1.1" xmlns="http://www.w3.org/2000/svg" xmlns:xlink="http://www.w3.org/1999/xlink" width="400" height="400" viewBox="0, 0, 400,400"><g id="svgg"><path id="path0" d="M162.213 149.979 C 162.083 150.189,162.364 150.284,162.843 150.192 C 164.038 149.962,164.311 149.600,163.290 149.600 C 162.827 149.600,162.342 149.771,162.213 149.979 M165.100 149.867 C 164.715 149.972,164.291 150.495,164.157 151.029 C 164.023 151.563,163.618 152.002,163.257 152.005 C 162.895 152.008,162.195 152.119,161.700 152.252 C 160.683 152.525,160.406 151.354,161.280 150.480 C 161.653 150.107,161.616 150.000,161.113 150.000 C 160.044 150.000,159.188 150.457,159.454 150.887 C 159.885 151.585,158.711 151.968,158.078 151.335 C 157.469 150.726,155.525 150.915,155.274 151.607 C 155.205 151.798,154.892 151.857,154.580 151.737 C 154.214 151.597,153.855 151.927,153.576 152.659 C 153.197 153.652,153.079 153.718,152.670 153.165 C 152.045 152.321,151.231 152.634,151.489 153.619 C 151.629 154.156,151.491 154.400,151.047 154.400 C 150.691 154.400,150.400 154.674,150.400 155.009 C 150.400 155.674,149.615 156.064,146.652 156.870 C 145.369 157.219,144.599 157.678,144.394 158.216 C 144.059 159.097,142.800 160.316,142.800 159.760 C 142.800 159.574,142.537 159.797,142.216 160.256 C 141.895 160.715,141.091 161.314,140.429 161.588 C 139.588 161.937,138.961 162.673,138.344 164.038 C 137.859 165.112,137.176 166.081,136.827 166.191 C 136.478 166.302,136.014 166.799,135.796 167.296 C 135.520 167.927,135.067 168.195,134.300 168.184 C 133.636 168.175,133.200 168.382,133.200 168.708 C 133.200 169.014,133.400 169.124,133.662 168.962 C 133.978 168.766,134.013 168.853,133.772 169.238 C 133.578 169.547,133.472 170.115,133.535 170.500 C 133.620 171.019,133.412 171.174,132.726 171.100 C 132.035 171.025,131.770 171.227,131.673 171.900 C 131.584 172.522,131.748 172.800,132.204 172.800 C 132.739 172.800,132.811 173.046,132.585 174.100 C 132.202 175.883,132.154 175.935,130.599 176.227 C 129.354 176.460,129.285 176.542,129.853 177.110 C 130.471 177.728,129.371 179.162,128.257 179.191 C 128.069 179.196,128.014 179.458,128.135 179.774 C 128.256 180.090,128.140 180.422,127.878 180.512 C 127.514 180.636,127.508 180.968,127.854 181.907 C 128.250 182.984,128.225 183.114,127.654 182.937 C 127.158 182.784,127.187 182.887,127.776 183.367 C 128.545 183.994,128.545 184.000,127.776 184.028 C 127.010 184.056,127.010 184.060,127.773 184.359 C 128.305 184.567,128.399 184.753,128.073 184.955 C 127.813 185.116,127.420 185.136,127.200 185.000 C 126.666 184.670,126.699 186.043,127.244 186.800 C 127.608 187.306,127.640 187.291,127.450 186.700 C 127.108 185.637,127.955 185.864,128.459 186.971 C 129.124 188.430,128.544 190.485,127.767 189.423 C 127.211 188.662,127.200 188.663,127.200 189.481 C 127.200 189.939,127.490 190.426,127.845 190.562 C 128.377 190.766,128.401 190.917,127.980 191.424 C 127.573 191.915,127.405 191.934,127.141 191.519 C 126.954 191.224,126.812 192.467,126.812 194.400 C 126.812 196.270,126.944 197.592,127.106 197.338 C 127.268 197.083,127.384 198.523,127.364 200.538 C 127.344 202.552,127.404 203.875,127.497 203.479 C 127.632 202.906,127.783 202.854,128.233 203.228 C 129.061 203.915,129.012 208.931,128.169 209.774 C 127.728 210.215,127.617 210.767,127.801 211.603 C 127.946 212.265,127.897 212.800,127.690 212.800 C 127.485 212.800,127.369 213.745,127.432 214.900 C 127.540 216.883,127.529 216.911,127.230 215.400 C 127.020 214.339,126.894 216.202,126.857 220.924 C 126.826 224.842,126.935 227.964,127.100 227.862 C 127.265 227.760,127.400 228.182,127.400 228.800 C 127.400 229.418,127.265 229.840,127.100 229.738 C 126.456 229.340,126.754 249.064,127.400 249.600 C 127.730 249.874,128.005 249.941,128.012 249.749 C 128.019 249.557,128.208 249.715,128.432 250.100 C 129.154 251.339,146.969 251.141,148.550 249.876 C 149.633 249.009,149.660 248.917,149.016 248.274 C 148.122 247.380,147.864 239.627,148.717 239.300 C 149.107 239.150,149.017 238.857,148.369 238.167 C 147.393 237.128,147.439 235.249,148.535 231.400 C 148.848 230.300,148.994 229.220,148.859 229.000 C 148.325 228.126,148.427 222.430,148.988 221.870 C 149.691 221.166,149.597 217.561,148.853 216.663 C 148.390 216.106,148.405 215.973,148.955 215.762 C 149.795 215.439,149.774 214.820,148.900 214.157 C 148.233 213.651,148.233 213.625,148.900 213.613 C 149.647 213.599,149.867 212.956,149.200 212.733 C 148.609 212.536,148.363 205.700,148.874 203.671 C 149.205 202.359,149.199 201.846,148.851 201.632 C 148.596 201.474,148.323 200.097,148.245 198.572 C 148.096 195.633,148.258 194.665,148.842 195.026 C 149.039 195.148,149.200 195.072,149.200 194.857 C 149.200 194.642,148.975 194.375,148.700 194.264 C 148.324 194.111,148.348 193.955,148.800 193.630 C 149.333 193.248,149.333 193.156,148.800 192.800 C 148.267 192.444,148.267 192.356,148.800 192.000 C 149.333 191.644,149.333 191.552,148.800 191.170 C 148.348 190.845,148.324 190.689,148.700 190.536 C 148.975 190.425,149.200 190.158,149.200 189.943 C 149.200 189.728,149.020 189.664,148.800 189.800 C 148.580 189.936,148.400 189.660,148.400 189.186 C 148.400 188.662,148.712 188.243,149.197 188.117 C 149.886 187.936,149.960 187.688,149.736 186.293 C 149.563 185.210,149.616 184.763,149.897 184.936 C 150.128 185.079,150.418 184.929,150.543 184.604 C 150.676 184.257,150.445 183.838,149.985 183.592 C 148.969 183.048,148.918 181.857,149.925 182.176 C 150.394 182.325,150.947 182.065,151.490 181.441 C 152.325 180.480,152.326 180.474,151.525 180.264 C 150.382 179.966,151.065 179.081,152.261 179.310 C 152.793 179.411,153.143 179.410,153.040 179.306 C 152.936 179.203,153.548 178.435,154.400 177.600 C 155.252 176.765,155.825 175.945,155.674 175.777 C 155.523 175.610,155.726 175.590,156.125 175.733 C 156.660 175.926,156.827 175.812,156.763 175.297 C 156.560 173.653,157.732 172.531,158.116 174.002 C 158.256 174.535,158.538 174.722,158.961 174.560 C 159.310 174.426,159.496 174.155,159.374 173.958 C 159.252 173.761,159.298 173.590,159.476 173.577 C 161.896 173.405,163.076 173.111,163.461 172.584 C 163.718 172.233,164.079 172.004,164.264 172.073 C 164.449 172.143,164.655 171.813,164.723 171.340 C 164.873 170.287,166.963 169.778,168.594 170.398 C 169.682 170.812,169.571 171.492,168.257 172.450 C 168.069 172.588,168.114 172.823,168.357 172.974 C 168.601 173.124,168.800 173.062,168.800 172.836 C 168.800 172.610,169.068 172.528,169.397 172.654 C 169.737 172.785,170.099 172.608,170.239 172.244 C 170.491 171.585,171.200 171.735,171.200 172.447 C 171.200 172.667,170.992 172.719,170.738 172.562 C 170.466 172.393,170.384 172.451,170.540 172.703 C 170.685 172.937,171.267 173.078,171.834 173.016 C 172.471 172.946,172.954 173.137,173.100 173.516 C 173.287 174.003,173.401 173.951,173.655 173.264 C 174.088 172.092,175.200 172.140,175.200 173.331 C 175.200 174.131,175.363 174.237,176.362 174.091 C 177.303 173.953,177.513 174.061,177.462 174.660 C 177.416 175.211,177.630 175.368,178.300 175.275 C 179.288 175.137,179.517 175.923,178.720 176.720 C 178.456 176.984,178.366 177.222,178.520 177.250 C 178.674 177.278,178.948 177.322,179.129 177.350 C 179.626 177.426,180.789 178.677,180.568 178.899 C 180.461 179.006,180.829 179.043,181.385 178.982 C 182.515 178.858,183.176 179.521,182.400 180.000 C 182.124 180.171,182.020 180.509,182.170 180.751 C 182.341 181.028,182.210 181.102,181.816 180.951 C 181.362 180.777,181.259 180.887,181.438 181.355 C 181.574 181.710,181.841 182.000,182.030 182.000 C 182.220 182.000,182.272 182.268,182.146 182.597 C 182.015 182.937,182.192 183.299,182.556 183.439 C 182.908 183.573,183.096 183.845,182.974 184.042 C 182.852 184.239,183.044 184.400,183.400 184.400 C 183.756 184.400,183.934 184.583,183.796 184.807 C 183.658 185.030,183.377 185.109,183.172 184.983 C 182.968 184.856,182.800 185.123,182.800 185.576 C 182.800 186.029,182.935 186.400,183.100 186.400 C 183.265 186.400,183.400 187.570,183.400 189.000 C 183.400 190.430,183.244 191.600,183.053 191.600 C 182.863 191.600,182.794 192.054,182.900 192.610 C 183.006 193.165,182.945 193.711,182.764 193.822 C 182.583 193.934,182.536 194.290,182.660 194.613 C 182.784 194.936,182.680 195.200,182.429 195.200 C 182.101 195.200,182.089 195.419,182.386 195.974 C 182.941 197.010,182.910 197.200,182.187 197.200 C 181.359 197.200,180.999 198.276,181.590 198.988 C 182.292 199.834,181.741 200.504,180.771 199.984 C 179.668 199.394,177.794 201.451,178.652 202.309 C 179.688 203.345,178.101 204.914,176.969 203.974 C 176.528 203.608,176.250 203.626,175.735 204.051 C 175.220 204.476,175.032 204.488,174.903 204.103 C 174.786 203.756,174.521 203.721,174.020 203.989 C 173.627 204.200,173.163 204.243,172.988 204.086 C 172.814 203.929,172.803 204.028,172.964 204.307 C 173.124 204.585,173.451 204.692,173.689 204.545 C 173.949 204.385,174.009 204.463,173.838 204.738 C 173.681 204.992,173.193 205.200,172.753 205.200 C 172.250 205.200,172.059 205.028,172.238 204.738 C 172.416 204.450,172.348 204.385,172.055 204.566 C 171.798 204.725,171.683 205.010,171.800 205.200 C 171.917 205.390,171.829 205.659,171.604 205.798 C 171.379 205.937,171.086 205.769,170.954 205.425 C 170.822 205.081,170.543 204.800,170.334 204.800 C 170.124 204.800,170.081 205.008,170.238 205.262 C 170.419 205.554,170.348 205.615,170.044 205.427 C 169.781 205.264,169.303 205.349,168.982 205.615 C 168.525 205.994,168.400 205.990,168.400 205.598 C 168.400 205.230,167.951 205.176,166.700 205.393 C 164.607 205.756,164.858 205.757,161.060 205.387 C 158.564 205.145,157.840 205.197,157.529 205.641 C 157.229 206.071,157.092 206.085,156.936 205.700 C 156.712 205.147,154.565 205.009,154.245 205.528 C 154.133 205.708,154.573 205.777,155.221 205.682 C 156.108 205.552,156.400 205.668,156.400 206.150 C 156.400 206.589,155.892 206.872,154.783 207.049 L 153.166 207.308 153.221 217.011 L 153.276 226.714 154.644 226.337 C 156.242 225.896,156.946 226.199,156.680 227.215 C 156.542 227.743,156.659 227.876,157.111 227.702 C 157.519 227.546,157.632 227.624,157.442 227.932 C 157.267 228.216,157.408 228.400,157.800 228.400 C 158.156 228.400,158.364 228.265,158.263 228.100 C 158.162 227.935,158.683 227.787,159.420 227.771 C 160.157 227.755,160.679 227.872,160.581 228.031 C 160.351 228.403,168.637 228.148,169.257 227.764 C 169.548 227.585,169.616 227.651,169.438 227.938 C 169.028 228.602,172.012 228.517,172.904 227.840 C 173.526 227.368,173.538 227.246,173.009 226.807 C 172.679 226.533,172.513 226.141,172.640 225.936 C 172.767 225.730,173.329 226.020,173.890 226.581 C 174.911 227.602,176.305 228.017,175.762 227.138 C 175.581 226.846,175.652 226.785,175.956 226.973 C 176.219 227.136,176.652 227.098,176.918 226.889 C 177.183 226.680,177.715 226.485,178.100 226.455 C 179.729 226.328,179.952 226.246,179.717 225.865 C 179.567 225.624,179.742 225.569,180.155 225.727 C 180.533 225.872,180.740 225.826,180.616 225.625 C 179.848 224.383,183.138 221.449,185.073 221.652 C 185.693 221.717,186.425 221.632,186.700 221.462 C 186.975 221.292,187.361 221.252,187.558 221.374 C 187.755 221.496,188.019 221.326,188.146 220.998 C 188.272 220.669,188.661 220.400,189.011 220.400 C 189.388 220.400,189.544 220.603,189.394 220.900 C 189.255 221.175,189.421 221.055,189.764 220.633 C 190.200 220.095,190.264 219.718,189.977 219.373 C 189.372 218.643,191.868 216.144,193.550 215.795 C 194.585 215.580,194.827 215.632,194.588 216.019 C 194.389 216.342,194.438 216.424,194.725 216.246 C 194.979 216.089,195.077 215.485,194.951 214.854 C 194.772 213.961,194.934 213.604,195.764 213.060 C 196.334 212.687,196.800 212.144,196.800 211.853 C 196.800 211.342,197.993 210.026,198.400 210.087 C 198.991 210.176,200.400 209.484,200.400 209.105 C 200.400 208.862,200.713 208.317,201.097 207.893 C 201.762 207.158,201.753 207.091,200.906 206.405 C 199.796 205.507,200.588 203.452,202.343 202.676 C 204.038 201.927,204.652 201.205,203.965 200.770 C 203.566 200.517,203.547 200.410,203.900 200.406 C 204.175 200.403,204.400 200.040,204.400 199.600 C 204.400 199.160,204.599 198.800,204.843 198.800 C 205.086 198.800,205.190 198.552,205.074 198.249 C 204.958 197.946,205.028 197.496,205.231 197.249 C 205.491 196.932,205.458 196.918,205.120 197.200 C 204.388 197.810,204.000 197.681,204.000 196.828 C 204.000 196.341,204.321 196.008,204.869 195.928 C 205.346 195.858,205.819 195.530,205.919 195.200 C 206.056 194.745,205.983 194.710,205.616 195.054 C 204.757 195.860,203.652 195.237,203.689 193.968 C 203.720 192.851,205.018 191.194,205.542 191.600 C 206.622 192.437,205.941 187.377,204.818 186.218 C 203.376 184.730,203.446 182.602,204.957 181.991 C 205.605 181.729,205.644 181.645,205.124 181.625 C 204.127 181.588,203.861 180.882,204.574 180.168 C 205.330 179.413,205.366 178.946,204.700 178.520 C 204.425 178.344,204.198 177.750,204.196 177.200 C 204.192 176.437,203.898 176.105,202.957 175.799 C 200.475 174.995,198.956 172.151,199.982 170.234 C 200.507 169.253,200.241 168.204,199.572 168.617 C 199.368 168.744,199.178 168.567,199.150 168.224 C 199.123 167.881,199.077 167.375,199.048 167.100 C 199.020 166.825,198.637 166.582,198.198 166.559 C 197.759 166.537,197.192 166.492,196.938 166.459 C 196.233 166.369,194.019 162.815,194.267 162.171 C 194.386 161.859,194.673 161.721,194.904 161.864 C 195.166 162.026,195.203 161.928,195.001 161.601 C 194.746 161.189,194.572 161.223,194.178 161.763 C 193.617 162.529,192.268 161.210,192.635 160.253 C 192.916 159.520,191.175 158.593,190.764 159.258 C 190.508 159.673,190.254 159.594,189.602 158.895 C 189.144 158.403,188.592 158.000,188.377 158.000 C 188.161 158.000,188.067 157.546,188.167 156.992 C 188.271 156.418,188.187 156.084,187.972 156.217 C 187.764 156.346,187.492 156.183,187.366 155.856 C 186.990 154.875,186.112 154.797,185.029 155.649 L 184.007 156.453 183.016 155.326 C 182.471 154.707,182.020 153.891,182.013 153.514 C 181.997 152.683,180.568 151.804,180.201 152.399 C 179.836 152.989,179.200 152.887,179.200 152.239 C 179.200 151.550,176.675 150.576,176.471 151.187 C 176.234 151.897,174.848 151.638,174.400 150.800 C 174.165 150.360,173.698 150.000,173.362 150.000 C 173.027 150.000,172.864 150.180,173.000 150.400 C 173.136 150.620,173.062 150.800,172.836 150.800 C 172.610 150.800,172.529 151.070,172.655 151.400 C 173.130 152.638,170.119 152.158,169.519 150.900 C 168.989 149.790,167.041 149.334,165.100 149.867 M233.600 151.193 C 233.600 151.343,233.375 151.484,233.100 151.504 C 232.825 151.525,232.195 151.666,231.700 151.818 C 231.139 151.989,230.800 151.925,230.800 151.647 C 230.800 151.401,230.530 151.200,230.200 151.200 C 229.870 151.200,229.600 151.470,229.600 151.800 C 229.600 152.133,229.244 152.400,228.800 152.400 C 228.360 152.400,228.000 152.220,228.000 152.000 C 228.000 151.780,227.837 151.600,227.637 151.600 C 227.438 151.600,227.379 152.005,227.507 152.500 C 227.701 153.253,227.643 153.322,227.153 152.920 C 226.682 152.535,226.471 152.594,226.080 153.220 C 225.578 154.024,224.400 154.299,224.400 153.613 C 224.400 153.399,224.100 153.340,223.734 153.481 C 223.287 153.652,223.164 153.583,223.358 153.268 C 223.532 152.987,223.398 152.800,223.024 152.800 C 222.228 152.800,222.212 153.442,223.000 153.745 C 223.330 153.871,223.600 154.231,223.600 154.545 C 223.600 155.233,222.628 155.662,221.795 155.343 C 221.462 155.215,220.948 155.312,220.651 155.557 C 220.242 155.897,219.856 155.802,219.043 155.163 C 218.362 154.627,218.015 154.517,218.087 154.861 C 218.149 155.157,218.448 155.501,218.752 155.623 C 219.091 155.761,218.491 156.249,217.196 156.890 C 215.223 157.866,214.000 157.972,214.000 157.166 C 214.000 156.974,213.550 157.022,213.000 157.273 C 212.450 157.523,212.000 157.880,212.000 158.064 C 212.000 158.249,211.685 158.414,211.300 158.432 C 210.882 158.450,210.801 158.544,211.100 158.665 C 211.375 158.776,211.600 159.042,211.600 159.257 C 211.600 159.472,211.420 159.536,211.200 159.400 C 210.980 159.264,210.797 159.388,210.794 159.676 C 210.789 160.063,210.690 160.046,210.416 159.612 C 209.945 158.868,209.570 159.232,209.423 160.573 C 209.270 161.961,208.099 163.200,206.938 163.200 C 206.267 163.200,206.000 163.427,206.000 164.000 C 206.000 164.440,205.801 164.800,205.557 164.800 C 205.292 164.800,205.231 165.080,205.405 165.500 C 205.565 165.885,205.704 166.426,205.714 166.702 C 205.727 167.046,205.967 166.992,206.479 166.528 C 207.624 165.493,208.419 166.569,208.686 169.517 C 208.880 171.658,209.018 171.968,209.870 172.182 C 211.240 172.526,211.465 173.494,210.403 174.483 L 209.504 175.321 210.452 175.888 C 210.973 176.200,211.104 176.366,210.742 176.256 C 210.202 176.093,210.136 176.249,210.371 177.129 C 210.533 177.733,210.994 178.260,211.429 178.339 C 212.814 178.588,212.992 179.144,212.021 180.178 L 211.092 181.167 212.120 180.980 C 213.492 180.731,213.881 181.443,212.555 181.775 C 211.703 181.989,211.566 182.195,211.794 182.918 C 211.947 183.403,212.092 184.174,212.116 184.630 C 212.140 185.087,212.428 185.711,212.756 186.017 C 213.272 186.498,213.316 186.479,213.083 185.872 C 212.905 185.408,213.040 185.083,213.483 184.913 C 213.851 184.772,214.221 184.864,214.306 185.118 C 214.413 185.439,214.757 185.384,215.442 184.935 C 215.983 184.581,216.339 184.205,216.233 184.100 C 216.127 183.994,216.483 183.433,217.022 182.854 C 217.562 182.274,218.650 181.080,219.439 180.200 C 220.228 179.320,220.739 178.853,220.575 179.162 C 220.378 179.533,220.433 179.627,220.738 179.438 C 220.992 179.281,221.200 178.899,221.200 178.589 C 221.200 178.252,221.442 178.118,221.800 178.255 C 222.183 178.402,222.400 178.248,222.400 177.830 C 222.400 177.470,222.130 177.071,221.800 176.945 C 220.780 176.553,221.125 176.052,223.100 175.052 C 225.409 173.884,228.000 173.129,228.000 173.625 C 228.000 174.119,229.845 174.543,230.428 174.183 C 230.688 174.022,232.634 173.844,234.751 173.787 C 236.868 173.731,239.095 173.600,239.700 173.497 C 240.305 173.394,240.800 173.489,240.800 173.707 C 240.800 173.933,241.367 174.013,242.110 173.892 C 242.903 173.763,243.716 173.896,244.169 174.227 C 244.581 174.528,245.091 174.667,245.304 174.536 C 245.516 174.405,245.809 174.491,245.955 174.726 C 246.100 174.962,246.979 175.326,247.907 175.535 C 248.835 175.743,249.502 175.765,249.390 175.584 C 249.278 175.403,249.370 175.142,249.593 175.004 C 250.134 174.670,250.117 175.723,249.573 176.267 C 249.271 176.569,249.335 176.766,249.794 176.942 C 250.228 177.109,250.359 177.027,250.190 176.695 C 250.052 176.423,250.269 176.570,250.671 177.023 C 251.074 177.476,251.988 178.105,252.702 178.421 C 253.416 178.737,254.000 179.131,254.000 179.298 C 254.000 179.464,254.201 179.600,254.447 179.600 C 254.706 179.600,254.799 179.241,254.669 178.742 C 254.501 178.099,254.559 177.999,254.902 178.342 C 255.154 178.594,255.678 178.800,256.066 178.800 C 256.454 178.800,256.974 179.178,257.222 179.641 C 257.669 180.477,257.678 180.475,258.812 179.389 C 259.948 178.300,261.187 178.248,261.213 179.287 C 261.220 179.591,261.465 179.483,261.813 179.024 C 262.136 178.596,262.400 178.384,262.400 178.552 C 262.400 178.720,262.705 178.552,263.078 178.179 C 263.498 177.759,263.722 176.987,263.666 176.155 C 263.567 174.684,264.567 172.800,265.446 172.800 C 265.751 172.800,266.000 173.001,266.000 173.247 C 266.000 173.503,266.357 173.600,266.837 173.474 C 267.646 173.263,267.651 173.284,266.975 174.128 C 266.591 174.608,266.947 174.315,267.765 173.477 C 269.035 172.177,269.215 171.777,268.989 170.750 C 268.708 169.471,269.603 168.000,270.662 168.000 C 271.647 168.000,271.217 166.829,270.000 166.200 C 269.340 165.859,268.800 165.538,268.800 165.487 C 268.800 165.436,268.965 164.820,269.166 164.118 C 269.650 162.431,268.779 161.533,267.650 162.554 C 266.832 163.295,265.600 163.040,265.600 162.130 C 265.600 161.728,265.351 161.625,264.800 161.800 C 264.171 162.000,264.000 161.872,264.000 161.203 C 264.000 160.736,263.832 160.456,263.628 160.583 C 263.423 160.709,263.111 160.585,262.934 160.307 C 262.616 159.805,262.547 159.590,262.450 158.786 C 262.416 158.501,262.158 158.501,261.624 158.787 C 260.583 159.344,260.067 158.531,261.021 157.834 C 261.486 157.494,261.573 157.231,261.281 157.050 C 261.038 156.900,260.639 157.154,260.392 157.615 C 260.055 158.244,259.815 158.344,259.423 158.019 C 259.136 157.781,258.615 157.696,258.265 157.830 C 257.474 158.134,255.200 156.570,255.200 155.724 C 255.200 155.203,255.098 155.187,254.570 155.625 C 254.161 155.964,253.844 156.006,253.670 155.744 C 253.521 155.522,252.811 154.997,252.092 154.579 C 251.373 154.161,250.868 153.601,250.970 153.335 C 251.220 152.683,250.400 152.441,249.307 152.845 C 248.614 153.101,248.318 152.994,247.982 152.366 C 247.744 151.922,247.246 151.608,246.875 151.669 C 246.504 151.730,245.930 151.615,245.600 151.413 C 245.090 151.102,245.079 151.144,245.526 151.695 C 245.815 152.052,246.405 152.276,246.836 152.193 C 248.233 151.924,247.215 152.765,245.626 153.193 C 243.937 153.648,242.800 153.405,242.800 152.591 C 242.800 152.302,242.575 151.975,242.300 151.864 C 241.923 151.711,241.948 151.554,242.400 151.226 C 242.843 150.904,241.774 150.807,238.300 150.855 C 235.715 150.890,233.600 151.042,233.600 151.193 M197.412 165.317 C 197.241 165.712,197.213 166.147,197.351 166.284 C 197.757 166.690,198.084 166.120,197.897 165.331 C 197.732 164.633,197.710 164.632,197.412 165.317 M135.381 165.526 C 134.873 165.891,134.709 166.800,135.151 166.800 C 135.697 166.800,136.480 165.696,136.100 165.462 C 135.914 165.347,135.590 165.376,135.381 165.526 M268.567 171.743 C 268.309 172.413,267.600 172.660,267.600 172.080 C 267.600 171.691,268.492 170.759,268.683 170.949 C 268.758 171.024,268.705 171.381,268.567 171.743 M129.901 173.866 C 129.785 174.270,129.561 174.915,129.403 175.300 C 129.182 175.836,129.311 176.000,129.957 176.000 C 130.566 176.000,130.798 175.751,130.794 175.100 C 130.785 173.773,130.170 172.925,129.901 173.866 M218.500 180.288 C 218.225 180.386,218.000 180.645,218.000 180.862 C 218.000 181.580,216.811 182.462,216.099 182.272 C 215.508 182.114,215.538 182.040,216.300 181.796 C 216.795 181.637,217.200 181.323,217.200 181.097 C 217.200 180.588,218.526 179.585,218.799 179.887 C 218.910 180.010,218.775 180.190,218.500 180.288 M150.919 181.467 C 150.807 181.760,150.554 182.000,150.357 182.000 C 150.161 182.000,150.000 181.760,150.000 181.467 C 150.000 181.173,150.253 180.933,150.562 180.933 C 150.871 180.933,151.032 181.173,150.919 181.467 M184.400 193.295 C 184.400 193.939,183.269 194.835,183.002 194.403 C 182.865 194.181,182.963 194.000,183.219 194.000 C 183.476 194.000,183.593 193.760,183.481 193.467 C 183.368 193.173,183.529 192.933,183.838 192.933 C 184.147 192.933,184.400 193.096,184.400 193.295 M149.293 199.600 C 149.293 200.370,149.375 200.685,149.476 200.300 C 149.576 199.915,149.576 199.285,149.476 198.900 C 149.375 198.515,149.293 198.830,149.293 199.600 M181.102 200.900 C 181.012 201.175,180.437 201.459,179.825 201.531 C 178.849 201.646,178.778 201.585,179.255 201.046 C 179.912 200.304,181.335 200.192,181.102 200.900 M211.600 206.733 C 211.600 206.990,211.465 207.179,211.300 207.153 C 209.503 206.869,208.513 207.938,209.572 209.020 C 210.014 209.472,208.978 210.862,207.683 211.555 C 207.198 211.815,206.793 212.247,206.785 212.514 C 206.776 212.781,206.048 213.499,205.167 214.109 C 203.671 215.144,203.297 216.245,204.613 215.740 C 205.345 215.459,205.363 216.352,204.643 217.300 C 204.026 218.113,202.947 218.224,202.687 217.500 C 202.513 217.015,202.277 217.224,199.976 219.903 C 199.549 220.400,199.200 220.979,199.200 221.190 C 199.200 221.402,198.923 221.468,198.584 221.338 C 198.197 221.190,198.011 221.300,198.084 221.633 C 198.148 221.925,198.020 222.175,197.800 222.188 C 196.963 222.239,196.455 222.847,196.604 223.619 C 196.703 224.135,196.598 224.323,196.311 224.145 C 196.015 223.962,195.956 224.108,196.137 224.579 C 196.339 225.107,196.254 225.229,195.805 225.057 C 195.086 224.781,195.053 224.978,195.637 226.069 C 195.976 226.703,196.331 226.834,197.228 226.654 C 198.786 226.343,200.848 227.978,200.074 228.911 C 199.660 229.409,199.775 229.714,200.744 230.683 C 201.635 231.573,201.824 232.013,201.537 232.526 C 201.289 232.969,201.304 233.200,201.580 233.200 C 201.811 233.200,202.000 233.439,202.000 233.730 C 202.000 234.022,202.495 234.697,203.100 235.230 L 204.200 236.200 203.278 235.151 C 202.233 233.962,203.045 233.102,204.160 234.217 C 204.481 234.538,205.026 234.800,205.371 234.800 C 206.058 234.800,206.882 235.550,208.360 237.520 C 208.888 238.224,209.657 238.800,210.069 238.800 C 210.770 238.800,210.777 238.863,210.184 239.768 C 209.539 240.753,209.947 240.985,211.080 240.278 C 211.616 239.942,212.578 241.388,212.213 241.979 C 211.938 242.425,213.437 242.948,213.996 242.602 C 214.218 242.465,214.400 242.554,214.400 242.800 C 214.400 243.046,214.611 243.117,214.868 242.958 C 215.184 242.763,215.252 242.888,215.077 243.344 C 214.869 243.886,214.954 243.946,215.509 243.648 C 217.853 242.394,221.037 243.326,221.422 245.378 C 221.568 246.156,221.848 246.694,222.044 246.573 C 222.240 246.452,222.400 246.538,222.400 246.764 C 222.400 246.990,222.670 247.071,223.000 246.945 C 223.332 246.817,223.600 246.933,223.600 247.204 C 223.600 247.496,223.922 247.609,224.400 247.484 C 224.840 247.369,225.200 247.408,225.200 247.571 C 225.200 247.734,225.425 247.895,225.700 247.930 C 227.221 248.121,227.858 248.265,228.249 248.507 C 228.532 248.682,228.621 248.443,228.503 247.827 C 228.297 246.747,229.743 245.983,230.520 246.760 C 230.762 247.002,231.368 247.200,231.866 247.200 C 232.383 247.200,232.969 247.568,233.231 248.059 C 233.639 248.820,233.600 248.893,232.890 248.708 C 232.449 248.592,231.844 248.653,231.544 248.843 C 231.226 249.045,233.615 249.190,237.300 249.194 C 241.471 249.198,243.600 249.057,243.600 248.776 C 243.600 248.543,243.768 248.456,243.972 248.583 C 244.177 248.709,244.450 248.643,244.579 248.434 C 244.708 248.226,244.630 247.942,244.407 247.804 C 244.183 247.666,244.000 247.298,244.000 246.986 C 244.000 246.276,245.894 246.903,246.579 247.839 C 246.924 248.311,247.259 248.358,248.071 248.049 C 248.647 247.830,249.236 247.769,249.380 247.913 C 249.524 248.058,249.509 247.821,249.346 247.388 C 249.089 246.703,249.134 246.668,249.694 247.123 C 250.256 247.580,250.310 247.530,250.119 246.723 C 249.904 245.818,249.912 245.815,250.517 246.600 C 251.123 247.384,251.140 247.379,251.403 246.329 C 251.818 244.677,253.061 243.721,254.017 244.318 C 255.088 244.986,255.521 244.921,255.456 244.100 C 255.412 243.552,255.673 243.421,256.662 243.496 C 257.556 243.565,258.193 243.312,258.851 242.628 C 259.821 241.621,260.400 241.628,260.400 242.647 C 260.400 242.977,260.232 243.144,260.028 243.017 C 259.823 242.891,259.552 242.954,259.426 243.158 C 259.299 243.363,259.512 243.469,259.898 243.395 C 260.284 243.322,260.746 243.247,260.924 243.231 C 261.102 243.214,261.136 243.020,261.000 242.800 C 260.864 242.580,261.029 242.400,261.366 242.400 C 261.831 242.400,261.923 242.117,261.747 241.237 C 261.521 240.103,262.681 238.815,263.338 239.471 C 263.472 239.605,263.694 239.421,263.831 239.063 C 264.055 238.481,264.171 238.475,264.930 239.006 C 266.048 239.789,267.329 239.824,266.300 239.043 C 265.404 238.363,265.411 238.000,266.320 238.000 C 266.716 238.000,267.256 237.784,267.520 237.520 C 267.893 237.147,268.003 237.213,268.013 237.820 C 268.026 238.544,268.082 238.534,268.800 237.673 C 269.427 236.919,269.485 236.604,269.104 235.995 C 268.724 235.387,268.776 235.089,269.380 234.422 C 270.313 233.391,270.800 233.375,270.800 234.376 C 270.800 234.803,271.008 235.281,271.262 235.438 C 271.549 235.616,271.615 235.548,271.436 235.259 C 271.274 234.997,271.432 234.686,271.798 234.546 C 272.154 234.409,272.352 234.052,272.237 233.753 C 272.123 233.454,272.237 233.252,272.491 233.305 C 272.745 233.357,273.029 233.046,273.122 232.613 C 273.268 231.937,273.203 231.900,272.664 232.347 C 271.873 233.003,271.200 232.613,271.200 231.500 C 271.200 230.665,271.188 230.663,270.625 231.424 C 269.752 232.601,268.575 231.056,269.423 229.846 C 269.958 229.081,267.909 225.558,267.289 226.178 C 267.170 226.296,266.797 226.170,266.460 225.897 C 266.069 225.580,265.946 225.566,266.121 225.858 C 266.511 226.509,265.290 226.876,264.371 226.384 C 263.663 226.006,263.473 225.275,263.499 223.025 C 263.504 222.600,263.259 222.002,262.954 221.697 C 262.649 221.392,262.400 221.252,262.400 221.386 C 262.400 221.519,262.038 221.434,261.595 221.197 C 261.080 220.922,260.549 220.901,260.123 221.139 C 259.634 221.413,259.284 221.298,258.805 220.706 C 258.185 219.941,258.089 219.933,256.896 220.550 C 256.205 220.908,255.361 221.200,255.020 221.200 C 254.679 221.200,254.400 221.380,254.400 221.600 C 254.400 222.176,253.304 222.094,253.065 221.500 C 252.910 221.115,252.856 221.121,252.832 221.524 C 252.814 221.814,252.595 221.920,252.338 221.762 C 252.050 221.583,251.985 221.652,252.166 221.945 C 252.478 222.449,250.969 225.200,250.381 225.200 C 250.187 225.200,249.839 224.847,249.608 224.415 C 249.351 223.934,248.947 223.722,248.567 223.868 C 248.127 224.037,248.071 224.231,248.373 224.533 C 248.899 225.059,248.934 226.000,248.427 226.000 C 248.222 226.000,247.939 225.637,247.798 225.194 C 247.449 224.095,246.680 224.659,246.907 225.847 C 247.134 227.035,246.762 227.072,246.050 225.931 L 245.507 225.062 244.716 226.031 C 244.281 226.564,244.015 226.715,244.125 226.367 C 244.237 226.010,244.095 225.733,243.800 225.733 C 243.489 225.733,243.373 225.991,243.513 226.367 C 243.708 226.889,243.643 226.914,243.143 226.507 C 242.064 225.632,236.071 226.312,235.920 227.326 C 235.854 227.772,235.599 228.204,235.352 228.285 C 235.070 228.377,234.977 228.057,235.099 227.416 C 235.246 226.646,235.126 226.400,234.604 226.400 C 234.129 226.400,233.993 226.604,234.166 227.057 C 234.376 227.604,234.317 227.629,233.814 227.211 C 233.481 226.935,233.307 226.550,233.428 226.355 C 233.549 226.160,233.187 226.000,232.624 226.000 C 232.061 226.000,231.600 226.180,231.600 226.400 C 231.600 227.180,229.928 226.811,229.712 225.984 C 229.461 225.027,228.545 225.172,228.718 226.141 C 228.785 226.519,228.572 226.800,228.218 226.800 C 227.479 226.800,227.457 226.619,228.059 225.474 C 228.436 224.755,228.318 224.797,227.392 225.713 C 226.116 226.973,225.724 226.791,225.507 224.838 C 225.356 223.470,223.091 222.670,222.353 223.723 C 222.217 223.917,221.017 223.023,219.686 221.738 C 218.355 220.452,216.802 218.977,216.235 218.459 C 215.667 217.942,215.304 217.356,215.427 217.157 C 215.550 216.957,215.344 216.677,214.969 216.533 C 214.335 216.289,214.337 216.235,215.005 215.747 C 215.660 215.268,215.665 215.200,215.061 214.968 C 214.698 214.829,214.400 214.464,214.400 214.157 C 214.400 213.851,214.185 213.600,213.922 213.600 C 213.378 213.600,211.200 211.620,211.200 211.125 C 211.200 210.946,211.541 210.800,211.957 210.800 C 212.374 210.800,212.818 210.530,212.945 210.200 C 213.071 209.870,213.016 209.600,212.821 209.600 C 212.626 209.600,212.394 209.817,212.306 210.083 C 212.199 210.403,211.825 210.268,211.197 209.683 C 210.676 209.197,210.434 208.800,210.660 208.800 C 211.138 208.800,212.134 206.801,211.815 206.482 C 211.697 206.363,211.600 206.477,211.600 206.733 M206.652 210.209 C 206.455 210.721,206.560 210.745,207.309 210.355 C 208.584 209.692,208.633 209.600,207.709 209.600 C 207.256 209.600,206.780 209.874,206.652 210.209 M128.390 219.576 C 128.767 220.486,128.771 221.076,128.408 222.176 C 127.689 224.355,127.200 223.879,127.200 221.000 C 127.200 218.198,127.614 217.703,128.390 219.576 M200.183 222.373 C 200.412 222.744,198.793 224.127,198.488 223.821 C 198.399 223.733,198.446 223.287,198.590 222.830 C 198.862 221.975,199.775 221.713,200.183 222.373 M268.004 227.124 C 268.282 227.458,268.266 227.490,267.951 227.231 C 267.704 227.028,267.254 226.958,266.951 227.074 C 266.648 227.190,266.400 227.102,266.400 226.878 C 266.400 226.346,267.496 226.514,268.004 227.124 M203.108 232.725 C 203.195 232.986,202.982 233.200,202.633 233.200 C 202.285 233.200,202.000 232.915,202.000 232.567 C 202.000 231.860,202.861 231.983,203.108 232.725 M243.200 248.200 C 243.200 248.530,243.020 248.800,242.800 248.800 C 242.580 248.800,242.400 248.530,242.400 248.200 C 242.400 247.870,242.580 247.600,242.800 247.600 C 243.020 247.600,243.200 247.870,243.200 248.200 " stroke="none" fill="#ffffff" fill-rule="evenodd"></path><path id="path1" d="M163.400 149.576 C 163.840 149.778,164.020 149.970,163.800 150.002 C 163.580 150.035,163.084 150.122,162.698 150.195 C 162.312 150.269,162.098 150.166,162.222 149.965 C 162.631 149.302,161.899 149.586,161.357 150.300 C 160.463 151.477,160.649 152.534,161.700 152.252 C 162.195 152.119,162.895 152.008,163.257 152.005 C 163.618 152.002,164.024 151.558,164.160 151.018 C 164.627 149.155,168.642 149.066,169.518 150.900 C 170.109 152.136,173.132 152.641,172.665 151.426 C 172.544 151.110,172.609 150.795,172.810 150.726 C 174.629 150.098,171.998 149.392,167.515 149.304 C 164.285 149.241,162.874 149.335,163.400 149.576 M157.895 150.335 C 157.231 150.598,157.234 150.651,157.946 151.261 C 158.724 151.927,159.910 151.626,159.449 150.879 C 159.309 150.653,159.421 150.377,159.698 150.266 C 159.974 150.154,159.840 150.062,159.400 150.060 C 158.960 150.058,158.283 150.182,157.895 150.335 M174.400 150.800 C 174.886 151.707,176.400 151.891,176.400 151.043 C 176.400 150.468,175.572 150.000,174.553 150.000 C 174.096 150.000,174.063 150.171,174.400 150.800 M232.400 150.792 C 232.400 151.029,231.662 151.084,230.537 150.929 C 229.187 150.744,228.753 150.800,228.958 151.132 C 229.142 151.430,229.023 151.507,228.621 151.353 C 228.218 151.198,228.000 151.341,228.000 151.757 C 228.000 152.133,228.332 152.400,228.800 152.400 C 229.244 152.400,229.600 152.133,229.600 151.800 C 229.600 151.470,229.870 151.200,230.200 151.200 C 230.530 151.200,230.800 151.401,230.800 151.647 C 230.800 151.925,231.139 151.989,231.700 151.818 C 232.195 151.666,232.825 151.525,233.100 151.504 C 233.375 151.484,233.600 151.297,233.600 151.090 C 233.600 150.883,234.050 150.826,234.600 150.964 C 235.177 151.109,235.600 151.043,235.600 150.808 C 235.600 150.583,234.880 150.400,234.000 150.400 C 233.120 150.400,232.400 150.577,232.400 150.792 M154.857 151.156 C 154.479 151.396,154.449 151.583,154.757 151.774 C 155.001 151.924,155.200 151.870,155.200 151.653 C 155.200 151.436,155.515 151.176,155.900 151.076 C 156.396 150.946,156.425 150.881,156.000 150.853 C 155.670 150.830,155.156 150.967,154.857 151.156 M178.100 151.265 C 178.705 151.486,179.200 151.922,179.200 152.233 C 179.200 152.886,179.835 152.991,180.201 152.399 C 180.568 151.804,181.997 152.683,182.013 153.514 C 182.038 154.879,183.948 156.567,184.719 155.905 C 185.094 155.584,185.614 155.200,185.876 155.052 C 186.490 154.704,188.396 156.745,188.122 157.458 C 188.008 157.756,188.107 158.000,188.342 158.000 C 188.577 158.000,189.159 158.405,189.635 158.900 C 190.230 159.518,190.558 159.643,190.684 159.300 C 190.784 159.025,191.042 158.800,191.257 158.800 C 191.472 158.800,191.533 158.984,191.394 159.210 C 191.255 159.435,191.289 159.594,191.470 159.563 C 192.384 159.404,192.864 159.657,192.660 160.189 C 192.535 160.513,192.836 161.278,193.328 161.889 C 193.820 162.500,194.737 163.765,195.366 164.700 C 195.994 165.635,196.709 166.427,196.954 166.459 C 197.199 166.492,197.759 166.537,198.198 166.559 C 198.637 166.582,199.020 166.825,199.048 167.100 C 199.077 167.375,199.123 167.881,199.150 168.224 C 199.178 168.567,199.368 168.744,199.572 168.617 C 200.241 168.204,200.507 169.253,199.982 170.234 C 199.398 171.325,200.050 174.011,201.112 174.893 C 201.975 175.609,204.400 176.372,204.400 175.927 C 204.400 175.069,201.642 169.720,200.669 168.690 C 200.092 168.080,199.620 167.493,199.618 167.386 C 199.613 166.896,198.378 164.907,197.534 164.028 C 197.020 163.494,196.330 162.664,196.000 162.183 C 194.517 160.026,185.153 153.334,184.329 153.844 C 184.069 154.004,183.986 153.946,184.134 153.707 C 184.284 153.464,183.433 152.922,182.096 152.410 C 180.833 151.926,179.387 151.366,178.881 151.165 C 178.376 150.964,177.746 150.814,177.481 150.832 C 177.217 150.849,177.495 151.044,178.100 151.265 M242.400 151.237 C 241.948 151.556,241.924 151.711,242.300 151.864 C 242.575 151.975,242.800 152.310,242.800 152.606 C 242.800 153.742,245.948 153.605,247.392 152.407 C 247.768 152.095,247.967 152.136,248.129 152.559 C 248.363 153.168,250.000 152.995,250.000 152.361 C 250.000 151.855,248.133 151.470,247.523 151.851 C 246.635 152.406,246.056 152.351,245.517 151.662 C 245.061 151.078,245.078 151.061,245.664 151.519 C 246.050 151.821,246.426 151.882,246.560 151.665 C 247.048 150.874,243.438 150.503,242.400 151.237 M149.689 153.224 C 147.636 154.225,146.481 155.008,146.650 155.282 C 146.819 155.554,146.740 155.610,146.444 155.427 C 145.886 155.082,144.706 155.924,145.025 156.441 C 145.144 156.633,144.933 156.672,144.555 156.527 C 144.123 156.362,143.966 156.421,144.130 156.687 C 144.279 156.927,144.091 157.086,143.696 157.055 C 143.269 157.021,143.052 157.232,143.133 157.600 C 143.207 157.930,143.137 158.070,142.978 157.912 C 142.583 157.516,140.333 159.168,140.625 159.640 C 140.754 159.849,140.711 159.994,140.530 159.963 C 140.348 159.931,139.982 159.927,139.716 159.953 C 139.051 160.018,134.367 165.882,132.555 168.917 C 131.740 170.282,130.817 171.700,130.505 172.067 C 130.074 172.572,130.041 172.929,130.368 173.540 C 131.135 174.974,130.909 176.000,129.827 176.000 C 128.796 176.000,128.203 177.022,128.614 178.092 C 128.747 178.438,128.579 178.799,128.223 178.936 C 127.548 179.195,127.354 180.400,127.987 180.400 C 128.201 180.400,128.271 180.130,128.145 179.800 C 128.018 179.470,128.069 179.196,128.257 179.191 C 129.371 179.162,130.471 177.728,129.853 177.110 C 129.285 176.542,129.354 176.460,130.599 176.227 C 132.154 175.935,132.202 175.883,132.585 174.100 C 132.807 173.064,132.735 172.800,132.232 172.800 C 131.861 172.800,131.600 172.460,131.600 171.976 C 131.600 171.456,131.770 171.258,132.062 171.438 C 132.362 171.624,132.414 171.547,132.212 171.219 C 131.981 170.845,132.128 170.787,132.781 170.994 C 133.492 171.220,133.639 171.131,133.541 170.537 C 133.475 170.132,133.578 169.547,133.772 169.238 C 134.013 168.853,133.978 168.766,133.662 168.962 C 133.400 169.124,133.200 169.014,133.200 168.708 C 133.200 168.382,133.636 168.175,134.300 168.184 C 135.067 168.195,135.520 167.927,135.796 167.296 C 136.014 166.799,136.478 166.302,136.827 166.191 C 137.176 166.081,137.859 165.112,138.344 164.038 C 138.961 162.673,139.588 161.937,140.429 161.588 C 141.091 161.314,141.895 160.715,142.216 160.256 C 142.537 159.797,142.800 159.574,142.800 159.760 C 142.800 160.316,144.059 159.097,144.394 158.216 C 144.599 157.678,145.369 157.219,146.652 156.870 C 149.615 156.064,150.400 155.674,150.400 155.009 C 150.400 154.674,150.691 154.400,151.047 154.400 C 151.489 154.400,151.629 154.156,151.491 153.626 C 151.250 152.705,152.230 152.179,152.564 153.051 C 152.851 153.799,153.435 153.472,153.714 152.406 C 154.011 151.270,153.465 151.381,149.689 153.224 M222.664 152.526 C 221.072 153.034,220.068 153.552,220.264 153.764 C 220.461 153.978,220.384 154.003,220.076 153.826 C 219.583 153.541,213.521 156.350,212.600 157.290 C 212.380 157.514,212.605 157.490,213.100 157.235 C 213.595 156.980,214.000 156.939,214.000 157.143 C 214.000 157.972,215.203 157.876,217.196 156.890 C 218.491 156.249,219.091 155.761,218.752 155.623 C 218.448 155.501,218.149 155.157,218.087 154.861 C 218.015 154.517,218.362 154.627,219.043 155.163 C 219.856 155.802,220.242 155.897,220.651 155.557 C 220.948 155.312,221.462 155.215,221.795 155.343 C 222.628 155.662,223.600 155.233,223.600 154.545 C 223.600 154.231,223.330 153.871,223.000 153.745 C 222.212 153.442,222.228 152.800,223.024 152.800 C 223.398 152.800,223.532 152.987,223.358 153.268 C 223.164 153.583,223.287 153.652,223.734 153.481 C 224.100 153.340,224.400 153.399,224.400 153.613 C 224.400 154.299,225.578 154.024,226.080 153.220 C 226.464 152.606,226.686 152.540,227.130 152.908 C 227.585 153.285,227.664 153.224,227.543 152.587 C 227.335 151.494,225.950 151.477,222.664 152.526 M250.678 152.657 C 250.940 152.764,251.072 153.069,250.970 153.335 C 250.868 153.601,251.373 154.161,252.092 154.579 C 252.811 154.997,253.521 155.522,253.670 155.744 C 253.844 156.006,254.161 155.964,254.570 155.625 C 255.098 155.187,255.200 155.203,255.200 155.724 C 255.200 156.570,257.474 158.134,258.265 157.830 C 258.615 157.696,259.136 157.781,259.423 158.019 C 259.814 158.344,260.051 158.252,260.372 157.652 C 260.968 156.539,261.065 156.649,258.300 155.302 C 254.716 153.556,253.316 153.081,252.762 153.423 C 252.472 153.603,252.380 153.556,252.534 153.307 C 252.675 153.078,252.388 152.783,251.896 152.651 C 250.848 152.370,249.983 152.375,250.678 152.657 M260.957 157.269 C 260.774 157.565,260.872 157.622,261.238 157.432 C 261.547 157.272,261.467 157.412,261.060 157.744 C 260.095 158.530,260.546 159.364,261.624 158.787 C 262.158 158.501,262.416 158.501,262.450 158.786 C 262.547 159.590,262.616 159.805,262.934 160.307 C 263.111 160.585,263.423 160.709,263.628 160.583 C 263.832 160.456,264.000 160.736,264.000 161.203 C 264.000 161.872,264.171 162.000,264.800 161.800 C 265.351 161.625,265.600 161.728,265.600 162.130 C 265.600 163.008,266.824 163.302,267.589 162.610 C 267.960 162.274,268.429 162.003,268.631 162.006 C 268.834 162.009,268.730 162.197,268.400 162.423 C 267.906 162.761,267.941 162.813,268.600 162.717 C 269.436 162.595,269.465 162.710,269.047 164.487 C 268.829 165.412,268.971 165.668,269.996 166.198 C 271.216 166.829,271.649 168.000,270.662 168.000 C 269.647 168.000,268.686 169.492,268.971 170.626 C 269.320 172.019,268.404 173.392,267.051 173.504 C 266.473 173.552,266.000 173.413,266.000 173.196 C 266.000 172.428,264.884 172.813,264.234 173.805 C 263.726 174.580,263.416 177.600,263.845 177.600 C 263.890 177.600,265.776 175.901,268.036 173.824 C 274.290 168.079,274.482 167.350,270.700 163.740 C 267.010 160.218,261.427 156.509,260.957 157.269 M210.847 158.300 C 210.228 158.814,210.109 159.159,210.396 159.600 C 210.681 160.037,210.789 160.057,210.794 159.676 C 210.797 159.388,210.980 159.264,211.200 159.400 C 211.420 159.536,211.600 159.472,211.600 159.257 C 211.600 159.042,211.375 158.776,211.100 158.665 C 210.801 158.544,210.882 158.450,211.300 158.432 C 211.685 158.414,212.000 158.220,212.000 158.000 C 212.000 157.446,211.816 157.494,210.847 158.300 M207.457 160.404 C 206.298 161.139,205.668 161.787,205.841 162.066 C 206.004 162.330,205.948 162.415,205.707 162.266 C 205.021 161.842,204.445 162.926,204.563 164.421 C 204.692 166.043,207.705 171.747,208.197 171.300 C 208.379 171.135,208.406 171.213,208.258 171.473 C 208.049 171.837,208.749 173.971,209.462 175.140 C 209.509 175.217,209.942 174.912,210.425 174.463 C 211.466 173.493,211.230 172.523,209.870 172.182 C 209.018 171.968,208.880 171.658,208.686 169.517 C 208.419 166.569,207.624 165.493,206.479 166.528 C 205.967 166.992,205.727 167.046,205.714 166.702 C 205.704 166.426,205.565 165.885,205.405 165.500 C 205.231 165.080,205.292 164.800,205.557 164.800 C 205.801 164.800,206.000 164.440,206.000 164.000 C 206.000 163.427,206.267 163.200,206.938 163.200 C 208.145 163.200,209.264 161.955,209.443 160.412 C 209.614 158.941,209.763 158.942,207.457 160.404 M197.835 166.298 C 197.398 166.735,197.099 166.040,197.412 165.317 C 197.710 164.632,197.732 164.633,197.897 165.331 C 197.993 165.734,197.965 166.169,197.835 166.298 M135.970 166.236 C 135.713 166.546,135.344 166.800,135.151 166.800 C 134.709 166.800,134.873 165.891,135.381 165.526 C 136.012 165.073,136.474 165.629,135.970 166.236 M165.725 170.279 C 165.203 170.381,164.795 170.803,164.715 171.325 C 164.641 171.806,164.377 172.161,164.128 172.113 C 163.880 172.065,163.574 172.290,163.450 172.613 C 163.299 173.007,163.484 173.200,164.013 173.200 C 164.446 173.200,164.800 173.020,164.800 172.800 C 164.800 172.580,164.991 172.400,165.224 172.400 C 165.457 172.400,165.536 172.580,165.400 172.800 C 165.250 173.042,165.804 173.200,166.800 173.200 C 167.796 173.200,168.350 173.042,168.200 172.800 C 168.064 172.580,168.143 172.400,168.376 172.400 C 168.609 172.400,168.800 172.600,168.800 172.845 C 168.800 173.107,169.267 173.222,169.930 173.125 C 170.551 173.034,171.278 173.193,171.545 173.480 C 172.166 174.144,173.322 174.159,173.092 173.500 C 172.996 173.225,172.630 173.051,172.279 173.113 C 171.929 173.175,171.438 172.845,171.189 172.380 C 170.755 171.568,170.715 171.564,170.195 172.267 C 169.771 172.841,169.547 172.895,169.164 172.517 C 168.777 172.136,168.781 171.905,169.180 171.424 C 169.607 170.909,169.519 170.749,168.617 170.407 C 167.527 169.992,167.262 169.980,165.725 170.279 M268.073 171.287 C 267.513 171.847,267.455 172.400,267.957 172.400 C 268.324 172.400,268.927 171.194,268.683 170.949 C 268.608 170.875,268.334 171.026,268.073 171.287 M173.867 172.667 C 172.976 173.557,174.553 175.647,175.618 174.989 C 175.839 174.852,175.970 174.979,175.910 175.270 C 175.849 175.562,176.108 175.776,176.484 175.747 C 176.861 175.718,177.140 175.808,177.106 175.947 C 177.071 176.086,177.715 176.894,178.536 177.743 C 179.356 178.592,180.385 179.987,180.822 180.843 C 181.259 181.699,181.805 182.400,182.037 182.400 C 182.268 182.400,182.174 182.117,181.829 181.771 C 181.029 180.972,181.026 180.648,181.821 180.953 C 182.211 181.102,182.341 181.027,182.170 180.751 C 182.020 180.509,182.124 180.171,182.400 180.000 C 183.176 179.521,182.515 178.858,181.385 178.982 C 180.829 179.043,180.455 179.012,180.554 178.912 C 180.895 178.571,179.080 176.827,178.640 177.072 C 178.398 177.207,178.425 177.075,178.700 176.779 C 179.508 175.909,179.302 175.136,178.300 175.275 C 177.630 175.368,177.416 175.211,177.462 174.660 C 177.513 174.061,177.303 173.953,176.362 174.091 C 175.363 174.237,175.200 174.131,175.200 173.331 C 175.200 172.453,174.453 172.081,173.867 172.667 M156.981 173.900 C 156.814 174.285,156.716 174.914,156.763 175.297 C 156.827 175.812,156.660 175.926,156.125 175.733 C 155.726 175.590,155.523 175.610,155.674 175.777 C 156.079 176.227,152.894 179.200,152.007 179.200 C 150.929 179.200,150.560 180.012,151.525 180.264 C 152.326 180.474,152.325 180.480,151.490 181.441 C 150.947 182.065,150.394 182.325,149.925 182.176 C 149.078 181.907,148.878 183.101,149.716 183.423 C 149.999 183.532,150.258 183.980,150.291 184.419 C 150.325 184.858,150.182 185.113,149.976 184.985 C 149.769 184.857,149.600 185.213,149.600 185.776 C 149.600 186.339,149.760 186.800,149.957 186.800 C 150.406 186.800,150.905 184.893,150.589 184.382 C 150.459 184.172,150.499 184.000,150.679 184.000 C 150.858 184.000,151.435 183.062,151.961 181.915 C 153.553 178.445,156.870 175.618,161.600 173.702 C 162.523 173.328,162.492 173.306,161.200 173.423 C 160.430 173.492,159.654 173.560,159.476 173.574 C 159.298 173.589,159.252 173.761,159.374 173.958 C 159.496 174.155,159.310 174.426,158.961 174.560 C 158.538 174.722,158.256 174.535,158.116 174.002 C 157.858 173.014,157.385 172.971,156.981 173.900 M226.188 173.794 C 222.580 174.872,220.427 176.418,221.800 176.945 C 222.130 177.071,222.400 177.470,222.400 177.830 C 222.400 178.248,222.183 178.402,221.800 178.255 C 221.428 178.113,221.200 178.257,221.200 178.636 C 221.200 178.972,221.041 179.149,220.847 179.029 C 220.503 178.816,218.204 181.224,217.874 182.142 C 217.778 182.408,217.561 182.452,217.355 182.245 C 217.148 182.039,217.209 181.816,217.500 181.712 C 217.775 181.614,218.000 181.278,218.000 180.967 C 218.000 180.655,218.180 180.400,218.400 180.400 C 218.620 180.400,218.800 180.218,218.800 179.997 C 218.800 179.757,218.474 179.797,218.000 180.093 C 217.560 180.368,217.200 180.798,217.200 181.050 C 217.200 181.301,216.795 181.634,216.300 181.789 L 215.400 182.071 216.362 182.345 C 217.246 182.596,217.272 182.671,216.681 183.262 C 216.328 183.615,216.125 183.992,216.232 184.098 C 216.338 184.205,215.983 184.581,215.442 184.935 C 214.757 185.384,214.413 185.439,214.306 185.118 C 214.221 184.864,213.851 184.772,213.483 184.913 C 213.040 185.083,212.905 185.408,213.083 185.872 C 213.322 186.495,213.281 186.508,212.720 185.987 C 212.373 185.664,212.142 185.115,212.208 184.766 C 212.275 184.417,212.167 183.877,211.970 183.566 C 211.716 183.163,211.610 183.367,211.606 184.271 C 211.599 185.740,212.482 186.800,213.714 186.800 C 214.583 186.800,215.150 186.240,218.053 182.511 C 219.494 180.660,225.092 176.400,226.083 176.400 C 226.283 176.400,226.360 176.259,226.253 176.086 C 226.146 175.913,226.361 175.748,226.729 175.720 C 228.007 175.623,231.200 174.303,231.200 173.873 C 231.200 173.589,231.035 173.605,230.720 173.920 C 230.084 174.556,228.986 174.529,228.317 173.859 C 227.879 173.422,227.472 173.410,226.188 173.794 M238.685 173.680 C 238.400 173.861,238.737 173.990,239.500 173.994 C 240.215 173.997,240.800 173.859,240.800 173.686 C 240.800 173.282,239.318 173.277,238.685 173.680 M234.264 174.100 C 234.501 174.488,236.459 174.477,237.078 174.084 C 237.341 173.917,236.774 173.785,235.818 173.790 C 234.862 173.796,234.162 173.935,234.264 174.100 M242.600 174.000 C 242.464 174.220,242.498 174.402,242.676 174.405 C 242.854 174.408,243.450 174.521,244.000 174.655 C 244.975 174.894,244.980 174.884,244.200 174.263 C 243.257 173.512,242.935 173.459,242.600 174.000 M245.200 174.773 C 245.200 174.978,245.605 175.266,246.100 175.412 C 247.886 175.938,252.644 178.961,254.676 180.860 C 257.348 183.356,258.466 183.419,260.752 181.200 C 261.658 180.321,262.400 179.296,262.400 178.924 C 262.400 178.333,262.325 178.346,261.813 179.024 C 261.465 179.483,261.220 179.591,261.213 179.287 C 261.187 178.248,259.948 178.300,258.812 179.389 C 257.678 180.475,257.669 180.477,257.222 179.641 C 256.974 179.178,256.454 178.800,256.066 178.800 C 255.678 178.800,255.154 178.594,254.902 178.342 C 254.559 177.999,254.501 178.099,254.669 178.742 C 254.799 179.241,254.706 179.600,254.447 179.600 C 254.201 179.600,254.000 179.464,254.000 179.298 C 254.000 179.131,253.415 178.739,252.700 178.427 C 251.985 178.114,251.170 177.537,250.889 177.146 C 250.578 176.712,250.108 176.528,249.689 176.676 C 249.127 176.873,249.092 176.818,249.500 176.379 C 250.098 175.734,250.172 174.646,249.593 175.004 C 249.370 175.142,249.278 175.403,249.390 175.584 C 249.502 175.765,248.830 175.743,247.897 175.535 C 246.964 175.326,246.140 174.986,246.067 174.778 C 245.894 174.289,245.200 174.286,245.200 174.773 M209.902 175.866 C 210.179 175.977,210.310 176.222,210.194 176.410 C 209.928 176.840,210.373 179.710,210.818 180.429 C 211.087 180.864,211.312 180.823,211.985 180.213 C 212.999 179.296,212.863 178.698,211.570 178.395 C 210.526 178.150,209.917 176.405,210.872 176.394 C 211.261 176.389,211.242 176.286,210.800 176.000 C 210.470 175.787,210.020 175.624,209.800 175.638 C 209.580 175.652,209.626 175.754,209.902 175.866 M204.171 177.590 C 204.171 178.025,204.403 178.469,204.686 178.578 C 205.246 178.793,205.335 178.418,204.957 177.433 C 204.619 176.552,204.171 176.642,204.171 177.590 M204.480 180.220 C 203.865 180.917,204.173 181.590,205.124 181.625 C 205.644 181.645,205.605 181.729,204.957 181.991 C 203.446 182.602,203.376 184.730,204.818 186.218 C 205.956 187.393,206.577 191.928,205.542 191.505 C 204.950 191.264,203.719 192.899,203.689 193.968 C 203.650 195.331,204.661 195.783,205.832 194.928 C 206.715 194.282,207.036 183.613,206.181 183.327 C 205.948 183.250,205.837 182.544,205.931 181.739 C 206.047 180.743,205.961 180.377,205.655 180.566 C 205.372 180.741,205.296 180.615,205.447 180.221 C 205.747 179.440,205.168 179.440,204.480 180.220 M150.000 181.467 C 150.000 181.760,150.161 182.000,150.357 182.000 C 150.554 182.000,150.807 181.760,150.919 181.467 C 151.032 181.173,150.871 180.933,150.562 180.933 C 150.253 180.933,150.000 181.173,150.000 181.467 M211.330 181.314 C 210.981 181.877,211.447 182.054,212.550 181.777 C 213.124 181.633,213.502 181.365,213.389 181.183 C 213.131 180.764,211.609 180.861,211.330 181.314 M127.043 182.633 C 126.437 184.212,127.048 185.589,128.073 184.955 C 128.399 184.753,128.305 184.567,127.773 184.359 C 127.010 184.060,127.010 184.056,127.776 184.028 C 128.545 184.000,128.545 183.994,127.776 183.367 C 127.145 182.853,127.127 182.774,127.680 182.947 C 128.155 183.095,128.292 182.985,128.137 182.580 C 127.845 181.818,127.346 181.842,127.043 182.633 M182.000 183.584 C 182.000 184.245,183.259 185.211,183.732 184.913 C 184.049 184.714,183.972 184.574,183.495 184.479 C 183.107 184.402,182.881 184.192,182.993 184.012 C 183.104 183.831,182.926 183.581,182.598 183.454 C 182.269 183.328,182.000 183.387,182.000 183.584 M126.900 186.265 C 126.191 186.551,126.240 190.697,126.960 191.417 C 127.441 191.898,127.590 191.894,128.005 191.394 C 128.394 190.926,128.362 190.760,127.845 190.562 C 127.490 190.426,127.200 189.939,127.200 189.481 C 127.200 188.663,127.211 188.662,127.767 189.423 C 128.544 190.485,129.124 188.430,128.459 186.971 C 128.013 185.991,127.809 185.898,126.900 186.265 M182.800 189.000 C 182.800 190.430,182.935 191.600,183.100 191.600 C 183.265 191.600,183.400 190.430,183.400 189.000 C 183.400 187.570,183.265 186.400,183.100 186.400 C 182.935 186.400,182.800 187.570,182.800 189.000 M148.667 188.267 C 148.240 188.694,148.359 190.072,148.800 189.800 C 149.020 189.664,149.200 189.728,149.200 189.943 C 149.200 190.158,148.975 190.425,148.700 190.536 C 148.324 190.689,148.348 190.845,148.800 191.170 C 149.333 191.552,149.333 191.644,148.800 192.000 C 148.267 192.356,148.267 192.444,148.800 192.800 C 149.333 193.156,149.333 193.248,148.800 193.630 C 148.348 193.955,148.324 194.111,148.700 194.264 C 148.975 194.375,149.200 194.642,149.200 194.857 C 149.200 195.072,149.039 195.148,148.842 195.026 C 148.258 194.665,148.096 195.633,148.245 198.572 C 148.323 200.097,148.596 201.474,148.851 201.632 C 149.199 201.846,149.205 202.359,148.874 203.671 C 148.363 205.700,148.609 212.536,149.200 212.733 C 149.867 212.956,149.647 213.599,148.900 213.613 C 148.233 213.625,148.233 213.651,148.900 214.157 C 149.774 214.820,149.795 215.439,148.955 215.762 C 148.405 215.973,148.390 216.106,148.853 216.663 C 149.597 217.561,149.691 221.166,148.988 221.870 C 148.427 222.430,148.325 228.126,148.859 229.000 C 148.994 229.220,148.848 230.300,148.535 231.400 C 147.439 235.249,147.393 237.128,148.369 238.167 C 149.017 238.857,149.107 239.150,148.717 239.300 C 147.864 239.627,148.122 247.380,149.016 248.274 C 149.660 248.917,149.633 249.009,148.550 249.876 C 147.462 250.747,147.447 250.796,148.286 250.798 C 149.984 250.802,150.000 250.498,150.000 218.626 C 150.000 187.523,149.975 186.958,148.667 188.267 M182.562 193.495 C 181.892 194.165,181.820 195.200,182.443 195.200 C 182.686 195.200,182.787 194.943,182.667 194.629 C 182.546 194.315,182.707 193.843,183.024 193.580 C 183.432 193.241,183.600 193.233,183.600 193.551 C 183.600 193.798,183.409 194.000,183.176 194.000 C 182.943 194.000,182.865 194.181,183.002 194.403 C 183.269 194.835,184.400 193.939,184.400 193.295 C 184.400 192.736,183.190 192.868,182.562 193.495 M181.153 196.900 C 180.854 197.615,180.657 198.348,180.715 198.530 C 180.773 198.711,180.649 198.754,180.440 198.625 C 180.232 198.496,179.694 198.906,179.245 199.537 C 177.972 201.324,175.663 202.890,172.956 203.801 C 170.825 204.518,170.530 204.733,170.863 205.326 C 171.075 205.706,171.421 205.911,171.631 205.781 C 171.841 205.651,171.917 205.390,171.800 205.200 C 171.683 205.010,171.798 204.725,172.055 204.566 C 172.348 204.385,172.416 204.450,172.238 204.738 C 172.059 205.028,172.250 205.200,172.753 205.200 C 173.193 205.200,173.681 204.992,173.838 204.738 C 174.009 204.463,173.949 204.385,173.689 204.545 C 173.451 204.692,173.124 204.585,172.964 204.307 C 172.803 204.028,172.814 203.929,172.988 204.086 C 173.163 204.243,173.627 204.200,174.020 203.989 C 174.521 203.721,174.786 203.756,174.903 204.103 C 175.032 204.488,175.220 204.476,175.735 204.051 C 176.250 203.626,176.528 203.608,176.969 203.974 C 178.169 204.970,179.674 203.331,178.571 202.229 C 178.226 201.883,178.091 201.583,178.271 201.563 C 178.452 201.543,179.124 201.498,179.765 201.463 C 181.075 201.392,181.730 200.400,180.467 200.400 C 180.027 200.400,179.586 200.625,179.488 200.900 C 179.390 201.175,179.210 201.310,179.087 201.199 C 178.477 200.648,179.957 199.549,180.743 199.969 C 181.736 200.501,182.302 199.846,181.590 198.988 C 180.986 198.260,181.366 197.200,182.230 197.200 C 182.663 197.200,182.803 196.986,182.643 196.567 C 182.509 196.219,182.400 195.859,182.400 195.767 C 182.400 195.106,181.599 195.834,181.153 196.900 M204.900 195.912 C 204.327 196.003,204.000 196.336,204.000 196.828 C 204.000 197.720,204.400 197.810,205.209 197.100 C 205.523 196.825,205.434 197.013,205.012 197.517 C 204.347 198.312,204.335 198.400,204.926 198.173 C 205.527 197.942,206.335 196.120,205.948 195.865 C 205.867 195.812,205.395 195.833,204.900 195.912 M126.900 197.398 C 126.277 198.105,126.184 208.000,126.800 208.000 C 127.020 208.000,127.200 208.270,127.200 208.600 C 127.200 208.930,127.020 209.200,126.800 209.200 C 126.578 209.200,126.400 210.267,126.400 211.600 C 126.400 212.920,126.569 214.000,126.776 214.000 C 126.983 214.000,127.229 214.585,127.323 215.300 C 127.417 216.015,127.454 215.745,127.406 214.700 C 127.357 213.655,127.485 212.800,127.690 212.800 C 127.897 212.800,127.946 212.265,127.801 211.603 C 127.617 210.767,127.728 210.215,128.169 209.774 C 129.012 208.931,129.061 203.915,128.233 203.228 C 127.783 202.854,127.632 202.906,127.497 203.479 C 127.404 203.875,127.344 202.535,127.364 200.500 C 127.384 198.465,127.400 196.807,127.400 196.815 C 127.400 196.824,127.175 197.086,126.900 197.398 M149.476 200.300 C 149.375 200.685,149.293 200.370,149.293 199.600 C 149.293 198.830,149.375 198.515,149.476 198.900 C 149.576 199.285,149.576 199.915,149.476 200.300 M204.400 199.567 C 204.400 199.988,204.175 200.424,203.900 200.535 C 203.584 200.662,203.642 200.748,204.057 200.768 C 204.419 200.786,204.824 200.515,204.957 200.167 C 205.308 199.252,205.256 198.800,204.800 198.800 C 204.580 198.800,204.400 199.145,204.400 199.567 M203.600 201.912 C 203.600 202.084,203.086 202.419,202.457 202.656 C 201.567 202.992,199.607 205.579,200.098 205.769 C 200.154 205.791,200.589 206.135,201.065 206.535 C 201.927 207.258,201.935 207.251,203.165 204.673 C 204.523 201.827,204.585 201.600,204.000 201.600 C 203.780 201.600,203.600 201.741,203.600 201.912 M209.029 205.029 C 208.683 205.374,208.400 205.793,208.400 205.959 C 208.400 206.602,203.933 214.552,202.798 215.929 C 202.139 216.728,201.603 217.566,201.606 217.791 C 201.609 218.016,201.803 217.930,202.037 217.600 C 202.356 217.148,202.511 217.124,202.664 217.500 C 202.957 218.222,204.025 218.114,204.643 217.300 C 205.363 216.352,205.345 215.459,204.613 215.740 C 203.297 216.245,203.671 215.144,205.167 214.109 C 206.048 213.499,206.776 212.781,206.785 212.514 C 206.793 212.247,207.198 211.815,207.683 211.555 C 208.978 210.862,210.014 209.472,209.572 209.020 C 208.513 207.938,209.503 206.869,211.300 207.153 C 211.465 207.179,211.600 206.990,211.600 206.733 C 211.600 206.477,211.697 206.363,211.815 206.482 C 212.134 206.801,211.138 208.800,210.660 208.800 C 210.434 208.800,210.676 209.197,211.197 209.683 C 211.825 210.268,212.199 210.403,212.306 210.083 C 212.394 209.817,212.626 209.600,212.821 209.600 C 213.016 209.600,213.071 209.870,212.945 210.200 C 212.818 210.530,212.374 210.800,211.957 210.800 C 211.541 210.800,211.200 210.925,211.200 211.078 C 211.200 211.583,213.339 213.600,213.875 213.600 C 214.164 213.600,214.400 213.851,214.400 214.157 C 214.400 214.464,214.698 214.829,215.061 214.968 C 215.665 215.200,215.660 215.268,215.005 215.747 C 214.337 216.235,214.335 216.289,214.969 216.533 C 215.344 216.677,215.550 216.957,215.427 217.157 C 215.304 217.356,215.667 217.942,216.235 218.459 C 216.802 218.977,218.367 220.463,219.712 221.763 C 221.057 223.063,222.227 223.918,222.312 223.664 C 222.707 222.479,225.600 224.029,225.600 225.425 C 225.600 226.822,226.181 226.909,227.411 225.694 C 228.336 224.780,228.443 224.743,228.059 225.474 C 227.454 226.626,227.478 226.800,228.243 226.800 C 228.625 226.800,228.800 226.576,228.674 226.249 C 228.558 225.946,228.634 225.526,228.845 225.315 C 229.204 224.956,227.100 223.784,225.600 223.510 C 225.270 223.449,224.910 223.304,224.800 223.187 C 223.999 222.336,221.012 220.469,220.730 220.643 C 220.538 220.762,220.430 220.705,220.490 220.516 C 220.663 219.974,217.705 217.108,217.470 217.590 C 217.355 217.826,217.306 217.792,217.362 217.514 C 217.418 217.236,216.675 215.856,215.711 214.448 C 214.746 213.040,213.857 211.385,213.734 210.771 C 213.612 210.158,213.215 209.328,212.854 208.928 C 212.493 208.527,212.255 207.799,212.325 207.309 C 212.579 205.541,210.177 203.880,209.029 205.029 M153.526 205.802 C 152.936 207.098,153.242 207.356,154.981 207.030 C 156.805 206.688,157.031 205.417,155.221 205.682 C 154.573 205.777,154.133 205.708,154.245 205.528 C 154.535 205.058,156.800 205.122,156.800 205.600 C 156.800 205.820,156.980 206.000,157.200 206.000 C 157.420 206.000,157.600 205.730,157.600 205.400 C 157.600 204.254,154.073 204.601,153.526 205.802 M161.600 205.158 C 161.600 205.550,164.069 205.875,165.500 205.672 C 167.356 205.409,166.309 204.800,164.000 204.800 C 162.680 204.800,161.600 204.961,161.600 205.158 M168.400 205.449 C 168.400 205.972,168.513 206.004,168.982 205.615 C 169.303 205.349,169.781 205.264,170.044 205.427 C 170.348 205.615,170.419 205.554,170.238 205.262 C 169.804 204.559,168.400 204.702,168.400 205.449 M200.880 208.080 C 200.616 208.344,200.400 208.782,200.400 209.053 C 200.400 209.499,198.680 210.337,198.542 209.959 C 198.413 209.607,196.800 211.361,196.800 211.853 C 196.800 212.144,196.334 212.687,195.764 213.060 C 194.934 213.604,194.772 213.961,194.951 214.854 C 195.077 215.485,194.979 216.089,194.725 216.246 C 194.438 216.424,194.389 216.342,194.588 216.019 C 194.827 215.632,194.585 215.580,193.550 215.795 C 191.962 216.124,189.326 218.686,189.941 219.301 C 190.555 219.915,190.038 220.735,189.179 220.510 C 188.703 220.386,188.316 220.554,188.163 220.952 C 188.027 221.306,187.755 221.496,187.558 221.374 C 187.361 221.252,186.975 221.292,186.700 221.462 C 186.425 221.632,185.693 221.717,185.073 221.652 C 183.075 221.443,179.852 224.390,180.657 225.692 C 180.813 225.945,180.737 226.008,180.473 225.845 C 180.225 225.692,179.598 225.845,179.079 226.185 C 178.561 226.525,178.020 226.687,177.878 226.544 C 177.736 226.402,177.353 226.507,177.027 226.777 C 176.702 227.048,176.202 227.137,175.918 226.976 C 175.508 226.744,175.502 226.792,175.888 227.209 C 176.429 227.793,179.600 227.027,179.600 226.312 C 179.600 226.115,179.786 226.068,180.013 226.208 C 180.534 226.530,186.484 223.659,186.211 223.217 C 186.100 223.037,186.322 222.915,186.704 222.945 C 187.131 222.979,187.348 222.768,187.267 222.400 C 187.193 222.070,187.262 221.929,187.419 222.086 C 188.459 223.126,198.151 214.414,197.366 213.145 C 197.188 212.857,197.249 212.783,197.525 212.953 C 197.970 213.228,199.897 210.900,201.046 208.700 C 201.671 207.504,201.625 207.335,200.880 208.080 M208.367 209.746 C 207.546 210.464,206.439 210.763,206.652 210.209 C 206.780 209.874,207.256 209.600,207.709 209.600 C 208.163 209.600,208.458 209.666,208.367 209.746 M254.870 218.940 C 252.405 221.265,247.947 224.029,245.400 224.812 C 242.122 225.820,242.220 225.754,243.032 226.415 C 243.668 226.934,243.723 226.928,243.513 226.367 C 243.373 225.991,243.489 225.733,243.800 225.733 C 244.093 225.733,244.238 226.012,244.129 226.367 C 243.957 226.927,243.996 226.931,244.469 226.400 C 245.210 225.567,245.979 225.479,246.254 226.196 C 246.622 227.156,247.107 226.896,246.907 225.847 C 246.680 224.659,247.449 224.095,247.798 225.194 C 247.939 225.637,248.222 226.000,248.427 226.000 C 248.934 226.000,248.899 225.059,248.373 224.533 C 248.071 224.231,248.127 224.037,248.567 223.868 C 248.947 223.722,249.351 223.934,249.608 224.415 C 250.252 225.618,250.680 225.381,251.988 223.100 C 252.651 221.945,253.194 221.225,253.196 221.500 C 253.198 221.775,253.470 222.000,253.800 222.000 C 254.130 222.000,254.400 221.820,254.400 221.600 C 254.400 221.380,254.679 221.200,255.020 221.200 C 255.361 221.200,256.205 220.908,256.896 220.550 C 258.089 219.933,258.185 219.941,258.805 220.706 C 259.284 221.298,259.634 221.413,260.123 221.139 C 260.549 220.901,261.080 220.922,261.595 221.197 C 263.166 222.038,262.473 220.340,260.509 218.536 C 258.091 216.317,257.617 216.351,254.870 218.940 M127.200 221.000 C 127.200 223.879,127.689 224.355,128.408 222.176 C 128.771 221.076,128.767 220.486,128.390 219.576 C 127.614 217.703,127.200 218.198,127.200 221.000 M198.329 220.911 C 194.783 224.215,194.502 224.823,195.654 226.688 C 199.261 232.523,209.407 242.261,210.912 241.331 C 211.138 241.191,211.205 241.268,211.061 241.502 C 210.727 242.041,216.656 245.336,217.273 244.955 C 217.524 244.800,217.614 244.854,217.475 245.078 C 217.184 245.549,218.209 246.086,221.075 246.964 C 223.544 247.721,223.600 247.725,223.600 247.157 C 223.600 246.914,223.330 246.818,223.000 246.945 C 222.670 247.071,222.400 246.990,222.400 246.764 C 222.400 246.538,222.240 246.452,222.044 246.573 C 221.848 246.694,221.572 246.175,221.430 245.419 C 221.093 243.625,219.667 242.890,217.200 243.238 C 216.210 243.377,215.340 243.335,215.266 243.143 C 215.192 242.952,214.967 242.897,214.766 243.021 C 214.565 243.145,214.400 243.046,214.400 242.800 C 214.400 242.554,214.218 242.465,213.996 242.602 C 213.437 242.948,211.938 242.425,212.213 241.979 C 212.578 241.388,211.616 239.942,211.080 240.278 C 209.947 240.985,209.539 240.753,210.184 239.768 C 210.777 238.863,210.770 238.800,210.069 238.800 C 209.657 238.800,208.888 238.224,208.360 237.520 C 206.882 235.550,206.058 234.800,205.371 234.800 C 205.026 234.800,204.473 234.530,204.144 234.201 C 203.695 233.752,203.350 233.705,202.772 234.015 C 202.165 234.340,202.000 234.297,202.000 233.814 C 202.000 233.476,201.811 233.200,201.580 233.200 C 201.304 233.200,201.289 232.969,201.537 232.526 C 201.824 232.013,201.635 231.573,200.744 230.683 C 199.775 229.714,199.660 229.409,200.074 228.911 C 200.848 227.978,198.786 226.343,197.228 226.654 C 196.331 226.834,195.976 226.703,195.637 226.069 C 195.053 224.978,195.086 224.781,195.805 225.057 C 196.254 225.229,196.339 225.107,196.137 224.579 C 195.935 224.054,196.002 223.954,196.394 224.196 C 196.719 224.397,196.827 224.368,196.674 224.120 C 196.537 223.898,196.864 223.304,197.400 222.800 C 197.936 222.296,198.261 221.699,198.122 221.474 C 197.968 221.225,198.130 221.164,198.534 221.319 C 198.969 221.486,199.200 221.371,199.200 220.987 C 199.200 220.664,199.335 220.394,199.500 220.387 C 199.665 220.381,200.123 219.931,200.519 219.387 C 201.556 217.963,201.306 218.137,198.329 220.911 M198.590 222.830 C 198.446 223.287,198.399 223.733,198.488 223.821 C 198.793 224.127,200.412 222.744,200.183 222.373 C 199.775 221.713,198.862 221.975,198.590 222.830 M263.498 222.699 C 263.416 222.865,263.382 223.225,263.424 223.500 C 263.466 223.775,263.522 224.444,263.550 224.986 C 263.578 225.528,263.947 226.158,264.371 226.384 C 265.290 226.876,266.511 226.509,266.121 225.858 C 265.946 225.566,266.069 225.580,266.460 225.897 C 266.797 226.170,267.221 226.260,267.401 226.097 C 267.581 225.933,267.597 226.028,267.436 226.307 C 267.276 226.585,266.977 226.709,266.772 226.583 C 266.568 226.456,266.400 226.563,266.400 226.819 C 266.400 227.076,266.648 227.190,266.951 227.074 C 267.254 226.958,267.704 227.064,267.951 227.311 C 268.198 227.558,268.400 227.614,268.400 227.436 C 268.400 227.257,268.748 227.536,269.173 228.056 C 269.838 228.868,269.872 229.114,269.418 229.817 C 268.602 231.079,269.749 232.606,270.625 231.424 C 271.188 230.663,271.200 230.665,271.200 231.500 C 271.200 232.585,271.868 233.008,272.609 232.392 C 273.025 232.048,273.075 231.713,272.790 231.182 C 272.195 230.069,265.573 223.784,265.129 223.910 C 264.915 223.970,264.849 223.844,264.981 223.630 C 265.114 223.416,264.868 223.051,264.435 222.819 C 264.003 222.587,263.581 222.533,263.498 222.699 M229.675 225.900 C 229.854 226.840,231.600 227.099,231.600 226.185 C 231.600 225.743,231.388 225.596,230.979 225.753 C 230.623 225.889,230.463 225.822,230.603 225.595 C 230.737 225.378,230.553 225.200,230.194 225.200 C 229.788 225.200,229.592 225.465,229.675 225.900 M152.800 225.981 C 152.800 226.937,153.785 228.415,154.292 228.220 C 154.594 228.104,154.732 228.187,154.597 228.405 C 154.454 228.636,154.926 228.800,155.734 228.800 C 156.634 228.800,157.200 228.576,157.362 228.155 C 157.532 227.711,157.436 227.578,157.050 227.726 C 156.664 227.874,156.549 227.715,156.680 227.215 C 156.946 226.197,156.241 225.896,154.633 226.340 C 153.511 226.650,153.296 226.616,153.471 226.160 C 153.589 225.852,153.486 225.600,153.243 225.600 C 152.999 225.600,152.800 225.772,152.800 225.981 M172.633 225.947 C 172.509 226.146,172.679 226.533,173.009 226.807 C 173.538 227.246,173.526 227.368,172.904 227.840 C 172.257 228.332,172.280 228.375,173.200 228.381 C 175.018 228.393,175.271 227.864,174.014 226.678 C 173.377 226.077,172.756 225.748,172.633 225.947 M233.428 226.355 C 233.307 226.550,233.481 226.935,233.814 227.211 C 234.317 227.629,234.376 227.604,234.166 227.057 C 233.993 226.604,234.129 226.400,234.604 226.400 C 235.126 226.400,235.246 226.646,235.099 227.416 C 234.977 228.057,235.070 228.377,235.352 228.285 C 235.599 228.204,235.856 227.755,235.925 227.288 C 236.033 226.557,236.368 226.418,238.325 226.295 C 240.074 226.184,239.796 226.134,237.124 226.076 C 235.212 226.034,233.549 226.160,233.428 226.355 M126.900 227.865 C 126.625 227.976,126.400 228.392,126.400 228.791 C 126.400 229.189,126.625 229.601,126.900 229.706 C 127.228 229.832,127.400 229.504,127.400 228.749 C 127.400 228.117,127.400 227.614,127.400 227.632 C 127.400 227.649,127.175 227.754,126.900 227.865 M158.295 228.300 C 158.548 228.964,160.260 228.942,160.517 228.272 C 160.661 227.897,160.339 227.752,159.412 227.772 C 158.539 227.791,158.168 227.966,158.295 228.300 M167.600 227.997 C 166.610 228.164,164.765 228.264,163.500 228.218 C 162.235 228.173,161.200 228.285,161.200 228.468 C 161.200 229.121,169.091 228.861,169.345 228.200 C 169.471 227.870,169.536 227.621,169.487 227.647 C 169.439 227.673,168.590 227.831,167.600 227.997 M202.000 232.567 C 202.000 232.915,202.285 233.200,202.633 233.200 C 202.982 233.200,203.195 232.986,203.108 232.725 C 202.861 231.983,202.000 231.860,202.000 232.567 M272.258 233.693 C 272.380 233.891,272.165 234.284,271.779 234.566 C 271.323 234.899,271.230 235.171,271.512 235.346 C 271.750 235.493,272.228 235.210,272.573 234.718 C 273.351 233.607,273.360 233.333,272.618 233.333 C 272.297 233.333,272.135 233.495,272.258 233.693 M269.380 234.422 C 268.814 235.047,268.736 235.407,269.054 235.922 C 269.554 236.730,269.311 237.716,268.704 237.341 C 268.461 237.190,268.392 237.264,268.545 237.511 C 268.692 237.749,268.630 238.058,268.407 238.196 C 268.183 238.334,268.000 238.131,268.000 237.744 C 268.000 237.196,267.893 237.147,267.520 237.520 C 267.256 237.784,266.716 238.000,266.320 238.000 C 265.411 238.000,265.404 238.363,266.300 239.043 C 267.329 239.824,266.048 239.789,264.930 239.006 C 264.171 238.475,264.055 238.481,263.831 239.063 C 263.694 239.421,263.472 239.605,263.338 239.471 C 262.681 238.815,261.521 240.103,261.747 241.237 C 261.923 242.117,261.831 242.400,261.366 242.400 C 261.029 242.400,260.864 242.580,261.000 242.800 C 261.136 243.020,261.102 243.214,260.924 243.231 C 260.746 243.247,260.284 243.322,259.898 243.395 C 259.512 243.469,259.299 243.363,259.426 243.158 C 259.552 242.954,259.823 242.891,260.028 243.017 C 260.232 243.144,260.400 242.977,260.400 242.647 C 260.400 241.628,259.821 241.621,258.851 242.628 C 258.193 243.312,257.556 243.565,256.662 243.496 C 255.673 243.421,255.412 243.552,255.456 244.100 C 255.521 244.921,255.088 244.986,254.017 244.318 C 253.061 243.721,251.818 244.677,251.403 246.329 C 251.140 247.379,251.123 247.384,250.517 246.600 C 249.912 245.815,249.904 245.818,250.119 246.723 C 250.290 247.449,250.226 247.553,249.815 247.213 C 249.427 246.890,249.229 246.946,249.043 247.432 C 248.862 247.905,248.490 248.021,247.696 247.853 C 246.663 247.635,246.651 247.647,247.497 248.070 C 248.472 248.559,255.395 246.639,254.995 245.992 C 254.887 245.817,255.187 245.776,255.662 245.900 C 256.305 246.068,256.442 245.992,256.201 245.601 C 255.990 245.260,256.033 245.173,256.322 245.352 C 257.715 246.213,270.621 237.570,270.147 236.093 C 269.963 235.519,269.996 235.501,270.341 235.988 C 270.950 236.850,271.242 236.312,270.953 234.864 C 270.657 233.383,270.389 233.308,269.380 234.422 M228.843 246.765 C 228.510 246.976,228.376 247.466,228.511 247.982 C 228.697 248.694,228.637 248.763,228.169 248.374 C 227.772 248.045,227.600 248.036,227.600 248.343 C 227.600 248.954,229.389 249.346,230.707 249.023 C 231.308 248.876,232.210 248.764,232.712 248.774 C 233.501 248.791,233.567 248.685,233.198 247.997 C 232.954 247.540,232.361 247.200,231.810 247.200 C 231.280 247.200,230.736 247.020,230.600 246.800 C 230.297 246.309,229.585 246.295,228.843 246.765 M244.000 246.997 C 244.000 247.303,244.183 247.666,244.407 247.804 C 244.630 247.942,244.708 248.226,244.579 248.434 C 244.450 248.643,244.177 248.709,243.972 248.583 C 243.768 248.456,243.600 248.543,243.600 248.776 C 243.600 249.009,244.151 249.200,244.824 249.200 C 245.497 249.200,245.946 249.037,245.823 248.837 C 245.700 248.638,245.977 248.573,246.438 248.694 C 247.205 248.895,247.232 248.840,246.747 248.064 C 246.073 246.984,244.000 246.179,244.000 246.997 M242.400 248.200 C 242.400 248.530,242.580 248.800,242.800 248.800 C 243.020 248.800,243.200 248.530,243.200 248.200 C 243.200 247.870,243.020 247.600,242.800 247.600 C 242.580 247.600,242.400 247.870,242.400 248.200 M126.800 249.471 C 126.800 250.006,127.677 250.800,128.267 250.800 C 128.560 250.800,128.675 250.539,128.538 250.183 C 128.408 249.843,128.205 249.662,128.087 249.779 C 127.970 249.897,127.632 249.793,127.337 249.548 C 127.042 249.303,126.800 249.268,126.800 249.471 " stroke="none" fill="#ffffff" fill-rule="evenodd"></path></g></svg>